Coordinates
version=1
nRows=29
nColumns=24
inDegrees=yes

Units are S.I. units (second, meters, Newtons, ...)
Angles are in degrees.

endheader
time	pelvis_tilt	pelvis_list	pelvis_rotation	pelvis_tx	pelvis_ty	pelvis_tz	hip_flexion_r	hip_adduction_r	hip_rotation_r	knee_angle_r	ankle_angle_r	subtalar_angle_r	mtp_angle_r	hip_flexion_l	hip_adduction_l	hip_rotation_l	knee_angle_l	ankle_angle_l	subtalar_angle_l	mtp_angle_l	lumbar_extension	lumbar_bending	lumbar_rotation
      1.32900000	     -1.63111351	      6.92259327	      1.26585820	      0.22092882	      0.99598476	      0.31935237	     18.18709290	     -8.21657390	     -1.12860912	    -67.78628565	     -2.47518424	     -5.82812573	      1.69046254	      9.90423629	     12.48574003	      4.90615060	    -12.50926790	     -0.03119172	    -14.70510149	      1.03808601	      2.44075045	     -5.41528639	      2.99133494
      1.33316667	     -1.50844984	      6.84530166	      1.34449117	      0.22605906	      0.99674449	      0.31914995	     18.60669981	     -8.14726762	     -1.09793729	    -67.56308272	     -1.75761346	     -6.27382020	      1.57380165	      9.26561613	     12.42321956	      5.17899822	    -12.20658253	      0.05649100	    -14.82332942	      0.99081414	      2.28787848	     -5.34342124	      2.79065024
      1.33733333	     -1.44585088	      6.74624984	      1.44296471	      0.23111632	      0.99735257	      0.31892956	     19.08671244	     -8.05906803	     -1.08358578	    -67.30159541	     -0.97979476	     -6.54955940	      1.52868101	      8.73989322	     12.33490772	      5.41422872	    -11.99794032	      0.22729835	    -14.82532700	      0.97164476	      2.19012669	     -5.22285862	      2.72121803
      1.34150000	     -1.33347808	      6.66972312	      1.51785265	      0.23619287	      0.99801793	      0.31874321	     19.50182906	     -7.98624521	     -1.04601520	    -66.98553000	     -0.26938373	     -6.97039084	      1.41248104	      8.13277135	     12.26362163	      5.65458218	    -11.72629875	      0.34903731	    -14.88405157	      0.92347833	      2.03355456	     -5.14452774	      2.56467755
      1.34566667	     -1.26700047	      6.55455831	      1.61748844	      0.24126132	      0.99860915	      0.31855233	     19.94112939	     -7.87809601	     -1.04644537	    -66.59921537	      0.45246109	     -7.23977187	      1.36539078	      7.60365054	     12.14794459	      5.87127987	    -11.51668615	      0.52037450	    -14.87765241	      0.90344719	      1.95512801	     -5.02558022	      2.50071844
      1.34983333	     -1.13035780	      6.49078660	      1.68249142	      0.24632772	      0.99924397	      0.31838710	     20.30575324	     -7.81828555	     -1.00977651	    -66.18253788	      1.10458361	     -7.66916849	      1.22205303	      6.96809469	     12.08092174	      6.09954308	    -11.23494210	      0.64225314	    -14.92792980	      0.84297578	      1.77115561	     -4.95936779	      2.33564205
      1.35400000	     -1.05797199	      6.38751352	      1.77734819	      0.25134382	      0.99974772	      0.31818408	     20.72382923	     -7.72675814	     -1.00866765	    -65.71537197	      1.80031037	     -7.92227896	      1.16509847	      6.44168748	     11.97303983	      6.30981599	    -11.03254304	      0.82211193	    -14.91149182	      0.81902863	      1.66721468	     -4.83032817	      2.27603652
      1.35816667	     -0.97528809	      6.29334524	      1.85636448	      0.25636294	      1.00024638	      0.31802322	     21.11920714	     -7.63508511	     -0.99003362	    -65.19648335	      2.44776816	     -8.23743181	      1.09787737	      5.89579621	     11.86712428	      6.50450504	    -10.80720017	      0.99073406	    -14.89325535	      0.79152351	      1.54610570	     -4.71729448	      2.18615333
      1.36233333	     -0.86183070	      6.21784866	      1.93029369	      0.26138146	      1.00074484	      0.31787377	     21.46754808	     -7.56343989	     -0.97086254	    -64.63328527	      3.07120565	     -8.56259615	      1.01766387	      5.31329427	     11.77656052	      6.69421624	    -10.57339910	      1.15631082	    -14.87638011	      0.75900785	      1.39186258	     -4.63799333	      2.08273634
      1.36650000	     -0.74976428	      6.13302199	      2.00454673	      0.26639349	      1.00122490	      0.31773975	     21.79683426	     -7.47673542	     -0.95182625	    -64.00717877	      3.64845656	     -8.87445998	      0.91899291	      4.73589410	     11.67195692	      6.87424855	    -10.34243792	      1.32030468	    -14.86185785	      0.71948629	      1.25044625	     -4.55789295	      1.97493187
      1.37066667	     -0.63329012	      6.06830527	      2.06511715	      0.27138860	      1.00165036	      0.31760916	     22.12035618	     -7.41194716	     -0.92135449	    -63.35532480	      4.15544352	     -9.21261295	      0.70676255	      4.14354112	     11.58641057	      7.06079799	    -10.08492318	      1.47421653	    -14.84935799	      0.63490229	      1.07791634	     -4.48096872	      1.81972956
      1.37483333	     -0.53514365	      5.99891768	      2.13597710	      0.27638259	      1.00202904	      0.31747591	     22.44362771	     -7.34890363	     -0.91232621	    -62.65336776	      4.70633280	     -9.45714201	      0.53725286	      3.58884530	     11.49316170	      7.21434519	     -9.86343261	      1.65968881	    -14.81366520	      0.56874263	      0.95163605	     -4.39682845	      1.74038079
      1.37900000	     -0.43223696	      5.92022804	      2.20534305	      0.28134701	      1.00238861	      0.31736958	     22.74450245	     -7.26397066	     -0.89166661	    -61.89651174	      5.19499396	     -9.70968769	      0.31138641	      3.03184165	     11.38606006	      7.38426814	     -9.64205579	      1.82925904	    -14.76569474	      0.48318069	      0.79191471	     -4.31128924	      1.64230296
      1.38316667	     -0.38317465	      5.84473644	      2.28832876	      0.28629391	      1.00261610	      0.31723294	     23.09186279	     -7.19485191	     -0.88994399	    -61.10541586	      5.69164892	     -9.87999395	      0.21453488	      2.55703501	     11.28596752	      7.52843380	     -9.46812976	      2.02953585	    -14.72157630	      0.44918725	      0.72716302	     -4.22238318	      1.59717009
      1.38733333	     -0.27725247	      5.80277956	      2.34130453	      0.29126107	      1.00289149	      0.31714419	     23.36968399	     -7.15223110	     -0.86588206	    -60.27983311	      6.09639035	    -10.12454496	      0.00579575	      1.98851204	     11.21227671	      7.66482299	     -9.22325886	      2.20159353	    -14.67088295	      0.37557507	      0.56769845	     -4.17828624	      1.48202865
      1.39150000	     -0.23725594	      5.73698652	      2.42331497	      0.29618185	      1.00303833	      0.31702763	     23.69798508	     -7.09044403	     -0.86401007	    -59.40506895	      6.53213664	    -10.26456152	     -0.08550503	      1.52952860	     11.11911512	      7.80847505	     -9.05527516	      2.39438044	    -14.62813263	      0.34618529	      0.49544420	     -4.09910531	      1.44189729
      1.39566667	     -0.17326900	      5.67823134	      2.49225129	      0.30111196	      1.00318839	      0.31693758	     23.98404997	     -7.03140918	     -0.85680553	    -58.48616633	      6.90711165	    -10.42787866	     -0.18056461	      1.03342218	     11.02715608	      7.94063451	     -8.86073529	      2.58450565	    -14.57656942	      0.31754924	      0.39067798	     -4.03673178	      1.37557278
      1.39983333	     -0.10656763	      5.63777838	      2.55612800	      0.30604494	      1.00330766	      0.31685272	     24.25358056	     -6.99244672	     -0.84857355	    -57.53069267	      7.24317687	    -10.58343489	     -0.27991191	      0.53082245	     10.95400725	      8.06983547	     -8.65803973	      2.76491201	    -14.52957370	      0.28854417	      0.28040401	     -3.99257407	      1.30309762
      1.40400000	     -0.00298337	      5.61405254	      2.60092798	      0.31099395	      1.00343427	      0.31678586	     24.46914010	     -6.96708751	     -0.83329925	    -56.53661211	      7.49603407	    -10.75356859	     -0.49017243	     -0.02693626	     10.89526952	      8.18830188	     -8.42286883	      2.93218264	    -14.49194205	      0.22566127	      0.13495986	     -3.96596509	      1.18378748
      1.40816667	      0.01466853	      5.57515268	      2.68049903	      0.31588613	      1.00340653	      0.31668470	     24.76052337	     -6.93598283	     -0.84218950	    -55.50725267	      7.79643363	    -10.83540425	     -0.58930933	     -0.45305415	     10.82740936	      8.32629734	     -8.26555425	      3.11555312	    -14.46713073	      0.19864290	      0.08157045	     -3.91850879	      1.14414164
      1.41233333	      0.07601287	      5.54744753	      2.74006450	      0.32080770	      1.00341268	      0.31661452	     24.98674663	     -6.91156565	     -0.85028171	    -54.43561912	      8.03461888	    -10.94042270	     -0.70829525	     -0.94745244	     10.76548391	      8.44784481	     -8.06356683	      3.28973300	    -14.44065373	      0.16704545	     -0.02622956	     -3.89056798	      1.07326195
      1.41650000	      0.14103939	      5.54808511	      2.78165817	      0.32572337	      1.00336822	      0.31656225	     25.20236027	     -6.91020005	     -0.83625151	    -53.34052400	      8.21034483	    -11.05357649	     -0.95284053	     -1.45470942	     10.73438754	      8.57243124	     -7.84225991	      3.43888182	    -14.43553446	      0.10032427	     -0.13550898	     -3.89293176	      0.96007183
      1.42066667	      0.10179228	      5.54547189	      2.83895847	      0.33060725	      1.00313715	      0.31649619	     25.52261947	     -6.91249836	     -0.83167363	    -52.22414410	      8.40577510	    -11.08295729	     -1.00568796	     -1.82201565	     10.70654812	      8.68646265	     -7.67429791	      3.62085997	    -14.40056105	      0.08986847	     -0.10945827	     -3.89157588	      0.94523033
      1.42483333	      0.14766150	      5.51621169	      2.91404368	      0.33550392	      1.00303122	      0.31641435	     25.70542930	     -6.89482919	     -0.88102681	    -51.03243833	      8.57407915	    -11.16532827	     -1.12569885	     -2.27561929	     10.64401745	      8.79852287	     -7.52122444	      3.78894382	    -14.40597764	      0.06041834	     -0.21114975	     -3.85318048	      0.87486708
      1.42900000	      0.16336725	      5.51305588	      2.96350297	      0.34039655	      1.00282047	      0.31636487	     25.92077008	     -6.89446610	     -0.89958138	    -49.82773959	      8.70206105	    -11.22002335	     -1.24590860	     -2.70803234	     10.61094446	      8.90855149	     -7.34104673	      3.95125669	    -14.39902679	      0.03156595	     -0.25919078	     -3.84330648	      0.80845893
      1.43316667	      0.19262540	      5.51903239	      3.00068976	      0.34528374	      1.00260460	      0.31634309	     26.10667238	     -6.89753722	     -0.91451827	    -48.58998206	      8.78623710	    -11.29109504	     -1.46650975	     -3.16221056	     10.58555160	      9.00823161	     -7.14250578	      4.09703964	    -14.40371246	     -0.02432938	     -0.34838773	     -3.87050470	      0.70690119
      1.43733333	      0.15691663	      5.51907764	      3.05775846	      0.35015939	      1.00226357	      0.31628792	     26.34370470	     -6.90782665	     -0.95932294	    -47.32220809	      8.90153304	    -11.29926337	     -1.58427688	     -3.51862662	     10.55998987	      9.09938730	     -7.00316081	      4.26812871	    -14.40413766	     -0.05216583	     -0.33347935	     -3.86557413	      0.67565613
      1.44150000	      0.13157172	      5.53893414	      3.09911006	      0.35503270	      1.00189541	      0.31625881	     26.55865637	     -6.93197957	     -0.99506553	    -46.03002645	      8.97616861	    -11.30847694	     -1.70406989	     -3.89490637	     10.55490333	      9.18556027	     -6.84541417	      4.43043226	    -14.40230679	     -0.08105321	     -0.34221053	     -3.88612755	      0.62668241
      1.44566667	      0.11033911	      5.54700205	      3.13673223	      0.35990913	      1.00151678	      0.31624221	     26.74488342	     -6.94166247	     -1.04212948	    -44.69382657	      9.03490223	    -11.31059247	     -1.81942763	     -4.27214629	     10.53498211	      9.25979904	     -6.69248886	      4.59255598	    -14.39670156	     -0.10935803	     -0.35743750	     -3.89890152	      0.57432123
